<?xml version="1.0" standalone="no"?>
<!DOCTYPE svg PUBLIC "-//W3C//DTD SVG 20010904//EN"
 "http://www.w3.org/TR/2001/REC-SVG-20010904/DTD/svg10.dtd">
<svg version="1.0" xmlns="http://www.w3.org/2000/svg"
 width="512.000000pt" height="512.000000pt" viewBox="0 0 512.000000 512.000000"
 preserveAspectRatio="xMidYMid meet">
<metadata>
Created by potrace 1.14, written by Peter Selinger 2001-2017
</metadata>
<g transform="translate(0.000000,512.000000) scale(0.100000,-0.100000)"
fill="#000000" stroke="none">
<path d="M1205 4689 c-92 -9 -119 -15 -199 -39 -52 -17 -71 -28 -85 -52 -11
-16 -18 -37 -16 -46 2 -10 4 -21 4 -26 1 -5 84 -93 185 -195 101 -102 191
-201 201 -220 9 -18 17 -58 18 -90 2 -156 -153 -257 -302 -195 -22 9 -109 88
-223 201 -165 165 -190 186 -218 185 -53 -1 -77 -25 -100 -99 -12 -38 -23 -79
-25 -93 -3 -14 -7 -36 -10 -50 -7 -32 -8 -213 -1 -237 2 -10 7 -34 10 -54 9
-63 56 -181 105 -263 164 -279 507 -447 826 -404 l60 8 793 -792 793 -793 -7
-50 c-56 -414 210 -818 611 -928 65 -18 205 -36 245 -31 14 1 52 5 85 9 33 3
97 17 143 31 69 21 86 30 102 57 12 20 17 40 13 57 -3 14 -81 102 -188 210
-100 102 -190 200 -200 219 -20 40 -23 137 -5 172 26 51 63 90 102 110 52 27
140 29 188 4 19 -10 121 -102 226 -206 176 -174 192 -188 220 -183 51 9 71 30
92 96 53 163 58 324 17 484 -35 138 -116 277 -220 380 -182 180 -410 263 -670
242 l-90 -7 -793 792 -792 792 6 40 c10 62 6 225 -6 280 -56 256 -190 444
-412 578 -78 47 -231 96 -320 103 -40 3 -77 7 -83 8 -5 1 -41 -1 -80 -5z"/>
</g>
</svg>
